<?xml version="1.0" encoding="utf-8"?>
<!DOCTYPE svg PUBLIC "-//W3C//DTD SVG 1.0//EN" "http://www.w3.org/TR/2001/REC-SVG-20010904/DTD/svg10.dtd">
<svg version="1.0" xmlns="http://www.w3.org/2000/svg" width="816px" height="592px" viewBox="0 0 816 592" preserveAspectRatio="xMidYMid meet">
 <g fill="#000000">
  <path d="M239 545.55 c-0.65 -0.20 -1.60 -1 -2.10 -1.85 -1.75 -3 -2.15 -8.15 -2.10 -27.20 0 -19.90 0.30 -22.50 3 -29.35 5 -12.65 17.65 -32.55 28.65 -45.15 15.45 -17.70 39 -37 67.55 -55.35 14.40 -9.25 21.35 -13 37.10 -19.95 4.75 -2.10 8.90 -4.05 9.20 -4.35 0.30 -0.35 2.25 -3.85 4.30 -7.85 27 -52.20 42.90 -83.45 67 -131.75 26.60 -53.30 33 -67.30 45.55 -99.25 12.40 -31.65 19.60 -49.60 21.10 -52.40 1.80 -3.40 1.65 -3.85 -0.45 -1.65 -4.40 4.55 -56.70 42.95 -89.30 65.50 -3.15 2.15 -10.25 7.15 -15.75 11.05 -27.05 19.10 -57.90 38.90 -89.75 57.60 -13.10 7.65 -20.40 11.95 -27.25 15.80 -4.10 2.35 -13.90 8 -21.75 12.55 -7.85 4.50 -17.05 9.85 -20.50 11.80 -17.10 9.85 -23.15 13.35 -27.50 16 -2.60 1.60 -6.65 4.10 -9 5.50 -11.80 7.20 -22.50 14.45 -32.75 22.20 -8.25 6.25 -19.75 16.85 -23.95 22.10 l-1.80 2.35 5.35 0.30 c3 0.20 7.20 0.55 9.40 0.80 27.55 3.20 43.95 4.55 61 5.05 22.65 0.65 68.80 -0.10 78.25 -1.30 6.75 -0.85 11.20 -0.60 12.65 0.65 1.10 1 1.10 4.15 0 5.55 -0.85 1 -1.60 1.10 -12.15 1.55 -33.45 1.40 -51.25 1.65 -77.45 1.10 -24.65 -0.55 -52.05 -1.90 -64.05 -3.10 -11.05 -1.15 -20 -2.50 -21.50 -3.25 -1.45 -0.75 -1.55 -0.95 -1.40 -3.40 0.15 -2.25 0.30 -2.65 1.55 -3.25 1.15 -0.55 1.35 -0.95 1.35 -2.60 0 -4.30 2.25 -7.35 12.35 -16.60 18.85 -17.35 35.35 -28.15 97.15 -63.70 7.30 -4.15 19.65 -11.30 27.50 -15.85 7.85 -4.50 15.95 -9.20 18 -10.35 29 -16.70 72.55 -44.25 91.65 -57.90 9.15 -6.55 9.50 -6.80 53 -39.50 58.35 -43.80 68.45 -50.60 75.10 -50.60 3.25 0 4.05 0.70 4.55 3.75 1.20 8 -5.50 25.80 -29.95 79.50 -4.10 9.10 -9.20 20.45 -11.35 25.25 -2.15 4.80 -5.50 12.25 -7.50 16.50 -5.15 11.10 -42 84.65 -56 111.75 -2.40 4.70 -7.70 15.05 -11.75 23 -4.05 8 -10.55 20.55 -14.35 27.95 -3.85 7.35 -6.90 13.50 -6.75 13.60 0.10 0.10 3.75 -1.60 8.15 -3.80 7.15 -3.55 8.50 -4.45 13.65 -9 12.55 -11.05 21.75 -15.25 32.60 -14.90 5.10 0.15 5.45 0.20 7.30 1.70 2.85 2.30 3.75 5.20 3.45 11.45 -0.15 3.50 -0.60 6.20 -1.45 8.90 l-1.25 3.90 1.80 -1.10 c7.70 -4.65 12.80 -6.50 18.90 -6.80 5.30 -0.30 7.40 0.20 9.50 2.40 1.30 1.40 1.45 1.90 1.60 5.70 0.25 5.10 -0.55 8.15 -3.90 14.90 l-2.45 4.95 7.35 -7.20 c23.80 -23.20 40.20 -35.15 49.10 -35.80 6.35 -0.40 8.50 1.15 8.90 6.40 0.30 3.90 -0.45 6.65 -3.40 12.75 -6.30 13.05 -25.55 38.80 -50.95 68.25 -2.65 3.05 -4.55 5.70 -4.55 6.35 0 0.65 -0.90 1.90 -2.30 3.10 -1.95 1.70 -2.70 2.05 -4.40 2.05 -2.70 0 -3.30 -0.65 -3.30 -3.50 0 -2.80 -0.25 -2.45 10.05 -14.55 28.10 -33.05 45.50 -56.75 50.85 -69.30 1.30 -3 1.40 -4.55 0.35 -4.95 -1.10 -0.45 -7.35 2.70 -12.70 6.25 -15.40 10.40 -48.65 42.75 -69.30 67.45 l-5.90 7.10 -2.35 0 c-2.80 0 -3.50 -0.60 -3.50 -3 0 -1.45 0.70 -2.85 3.50 -6.80 1.90 -2.70 4.55 -6.55 5.85 -8.45 1.35 -1.95 5.40 -7.80 9 -13 12.85 -18.60 18.75 -30 17 -32.80 -2.40 -3.85 -14.20 0.90 -28.65 11.60 -1.80 1.30 -3.15 2.90 -4.40 5.15 -10.95 19.55 -36.95 50.05 -47.15 55.25 -2.85 1.45 -7.85 1.50 -8.65 0.10 -1.05 -2 -0.60 -5.75 1.10 -9 5.35 -10.35 29.80 -37.35 45.95 -50.70 5.25 -4.35 5.35 -4.45 7.65 -9.45 4.95 -10.60 6.55 -17.70 4.60 -20.60 -1.40 -2.20 -2.80 -2.55 -6.90 -1.85 -5.85 1.05 -12.80 4.70 -17.45 9.25 -0.45 0.45 -0.90 0.80 -1.10 0.80 -0.15 0 -0.95 0.60 -1.75 1.40 -7.25 6.85 -12.95 10.70 -20.35 13.75 -2.45 1 -7.10 2.90 -10.25 4.25 l-5.75 2.40 -6.40 11.95 c-3.50 6.60 -9.25 17.40 -12.70 24 -6.95 13.25 -15.65 29.15 -27.80 50.75 -4.40 7.85 -9 15.95 -10.15 18.05 -8.50 15.30 -16.55 28.55 -19.60 32.20 -4.20 5.10 -15.75 17.20 -19 19.90 -7.45 6.15 -14.50 9.60 -35.75 17.55 -9.35 3.50 -13.45 4.30 -16.85 3.35z m10.40 -9.25 c2.40 -1.20 5.85 -2.75 7.70 -3.50 12.30 -4.85 22.40 -9.75 26.90 -13.05 3.70 -2.75 12.40 -11.45 17.70 -17.75 9.55 -11.40 26.10 -40.20 61.70 -107.25 4.50 -8.50 8.85 -16.70 9.70 -18.10 0.80 -1.45 1.35 -2.65 1.20 -2.65 -0.90 0 -13.60 6.75 -20.90 11.05 -27.40 16.25 -44.35 28.60 -68.55 50.20 -9.70 8.65 -22.60 25 -31.80 40.40 -3.05 5.05 -8.05 15.45 -9.25 19.10 -2.25 7.05 -3.35 32.30 -1.65 38.75 0.75 2.70 1.95 5 2.70 5 0.10 0 2.15 -1 4.55 -2.20z m163.55 -130.55 c8.30 -9.30 15.50 -18.05 13.40 -16.30 -2.40 1.95 -16.80 18.15 -21.60 24.30 l-1.95 2.50 2.15 -2 c1.20 -1.10 4.75 -4.90 8 -8.50z"/>
  <path d="M600.55 440.70 c-0.85 -1.05 -1.05 -2.05 -1.05 -4.95 0 -3.20 0.20 -4.05 2.20 -8.05 1.20 -2.45 3.15 -5.95 4.40 -7.75 l2.20 -3.30 -3.75 1.70 c-17 7.80 -29.25 10.85 -36.60 9.15 -5.65 -1.30 -6.95 -3.15 -6.95 -10.10 0 -3.95 0.25 -5.50 1.25 -8.15 0.65 -1.80 1.05 -3.25 0.90 -3.25 -0.15 0 -2.15 1.30 -4.35 2.90 -11.80 8.55 -21.05 14.25 -27.15 16.80 -2.55 1.05 -3.90 1.30 -7.50 1.30 -2.80 -0.05 -4.70 -0.25 -5.25 -0.70 -2.20 -1.65 -2.50 -6.70 -0.70 -10.55 2.55 -5.55 11.65 -13.15 21.50 -18.10 6.80 -3.40 8.60 -4.05 13 -4.70 4.35 -0.60 7.90 -0.15 10.10 1.35 l1.70 1.15 3.85 -2.45 c4.40 -2.90 5.60 -3.30 8.10 -2.70 1.75 0.45 1.80 0.50 1.95 3.20 0.15 2.75 0.10 2.90 -4.40 9.75 -6.65 10.30 -7.95 14.30 -5.30 16.60 1.85 1.60 4.75 1.50 11.85 -0.30 14.70 -3.70 38.35 -15.50 46.20 -23.05 3.50 -3.35 5.65 -4.50 8.30 -4.50 2.70 0 3.45 0.75 3.45 3.45 0 1.15 -0.45 1.85 -2.05 3.15 -9.20 7.40 -18.95 17.95 -24.70 26.70 -3.05 4.60 -5.60 9.55 -5.15 9.95 0.55 0.55 6.90 -2.70 12.50 -6.45 6.15 -4.05 13.45 -9.90 21 -16.90 4.85 -4.45 4.85 -4.45 7.25 -4.30 l2.40 0.15 0.15 2.50 c0.15 1.95 -0.20 3.20 -1.60 6.25 -2.15 4.50 -3.90 11.05 -3.25 11.75 1.70 1.80 14.35 -9.85 20.05 -18.50 1.85 -2.75 3.90 -6.20 4.55 -7.70 1.25 -2.65 1.25 -2.65 0.30 -4.25 -0.65 -1.05 -0.95 -2.50 -0.95 -4.40 0 -3.90 1 -4.90 4.65 -4.90 3.35 0 4.40 1 4.75 4.50 l0.25 2.55 5.40 2.75 c3 1.45 7.40 3.30 9.80 4 3.90 1.20 5.25 1.35 12.15 1.35 8.75 0.05 11.55 -0.50 17.85 -3.40 4.25 -1.95 6.60 -2.20 7.80 -0.85 1 1.10 1.10 3.55 0.25 4.75 -0.95 1.20 -7.55 4.05 -11.90 5.15 -3.10 0.80 -5.60 0.95 -14.75 0.95 -10.60 -0.05 -11.15 -0.10 -15.50 -1.40 -2.45 -0.80 -6.35 -2.30 -8.60 -3.35 l-4.05 -1.90 -2 4.10 c-3.70 7.70 -9.80 15.45 -16.90 21.50 -4.55 3.90 -8.30 5.75 -12.35 6.15 -6.10 0.55 -8.15 -1.60 -7.75 -8.15 0.10 -1.75 0.10 -3.20 0 -3.20 -0.10 0 -2.25 1.70 -4.80 3.75 -6.15 4.90 -15.30 10.75 -20 12.70 -3.10 1.30 -4.40 1.55 -7.75 1.55 -3.70 0 -4.05 -0.10 -5 -1.30z m-71.10 -22.25 c3.80 -1.75 10.40 -5.65 15.80 -9.35 6.85 -4.75 12.25 -8.80 12.25 -9.20 0 -2.45 -11.05 1.45 -19.05 6.75 -6.70 4.45 -14.40 11.60 -14.45 13.50 0 0.55 1.60 0.05 5.45 -1.70z"/>
 </g>
 <g fill="#ffffff">
  <path d="M0 296 l0 -296 408 0 408 0 0 296 0 296 -408 0 -408 0 0 -296z m245.10 247.80 c3.25 -0.55 25.60 -9.20 32.15 -12.45 8.90 -4.35 14.05 -8.50 23.65 -19 8.45 -9.20 8.80 -9.60 11.95 -14.35 2.35 -3.50 10.95 -18.10 15.85 -26.95 1.15 -2.10 5.75 -10.20 10.15 -18.05 12.15 -21.60 20.85 -37.50 27.80 -50.75 3.45 -6.60 9.20 -17.40 12.70 -24 l6.40 -11.95 5.75 -2.40 c3.15 -1.35 7.80 -3.25 10.25 -4.25 7.40 -3.05 13.10 -6.90 20.35 -13.75 0.80 -0.80 1.60 -1.40 1.75 -1.40 0.20 0 0.65 -0.35 1.10 -0.80 5.95 -5.80 14.40 -9.55 22.40 -9.85 7.85 -0.25 7.95 9.70 0.35 26.05 -2.30 5 -2.40 5.10 -7.65 9.45 -18.75 15.55 -45.95 46.50 -47.35 53.95 -0.40 2.25 0.50 3.70 2.35 3.70 2.20 0 5.20 -1.70 9.95 -5.75 12.25 -10.45 28.60 -30.45 39.40 -48.25 3.15 -5.20 3.85 -6 7.40 -8.65 5.30 -3.85 11.05 -7.25 16.20 -9.60 3.50 -1.60 4.95 -1.95 8.30 -2.15 3.75 -0.20 4.15 -0.15 5.15 0.95 3.35 3.60 -1.50 14.30 -16.45 35.95 -3.50 5.10 -7.60 11.05 -9.15 13.25 -9.50 13.60 -9.55 13.70 -8.85 14.50 0.35 0.40 1 0.75 1.50 0.75 0.45 0 3.35 -3.05 6.75 -7.10 16.35 -19.60 41.40 -44.85 59.65 -60.10 9.75 -8.15 19.30 -13.80 23.40 -13.80 2.70 0 3.45 0.85 3 3.60 -1.60 9.95 -19.55 35.35 -52.50 74.15 -5.15 6.05 -9.45 11.50 -9.65 12.15 -0.30 1.20 0.55 2.60 1.60 2.60 1.15 0 5.25 -4.05 5.25 -5.15 0 -0.65 1.90 -3.30 4.55 -6.35 25.40 -29.45 44.65 -55.20 50.95 -68.25 3.90 -8.05 4.35 -11.65 1.75 -14.60 -1.05 -1.25 -1.50 -1.40 -4.35 -1.40 -2.55 0.05 -3.85 0.40 -6.90 1.80 -10.55 5 -25.45 17.35 -48.20 40.05 -7.45 7.35 -13.55 13.30 -13.65 13.20 -0.10 -0.05 1.50 -2.70 3.50 -5.85 9.45 -14.75 12.75 -22.40 12.25 -28 -0.65 -6.40 -6.95 -8.10 -17.05 -4.45 -3.90 1.45 -13.75 6.90 -16 8.90 -1.20 1.05 -1.55 0.45 -0.70 -1.25 0.40 -0.75 1.55 -3.80 2.55 -6.70 3.25 -9.55 2.80 -15.80 -1.35 -19.15 -1.70 -1.35 -2.35 -1.55 -5.75 -1.70 -9.10 -0.45 -19.25 4.45 -31.15 14.90 -4.50 4 -6.85 5.60 -11.20 7.80 -6.20 3.15 -16.40 7.70 -16.65 7.45 -0.10 -0.10 0.15 -0.70 0.55 -1.35 0.75 -1.20 12.45 -23.80 23.60 -45.65 3.50 -6.85 8.70 -17 11.50 -22.50 16.45 -32.05 51.10 -101.15 56.25 -112.25 2 -4.25 5.35 -11.70 7.50 -16.50 2.15 -4.80 6.85 -15.25 10.50 -23.25 3.65 -7.95 7.80 -17.20 9.25 -20.50 1.45 -3.30 4.25 -9.70 6.25 -14.25 11.35 -25.90 16.20 -40.50 15 -45 -0.90 -3.35 -2.30 -3.30 -9.35 0.20 -7.80 3.95 -21.35 13.65 -67 47.90 -43.50 32.70 -43.85 32.95 -53 39.50 -19.10 13.65 -62.65 41.20 -91.65 57.90 -2.05 1.15 -10.15 5.85 -18 10.35 -7.85 4.55 -20.20 11.70 -27.50 15.85 -61.80 35.55 -78.30 46.35 -97.15 63.70 -10.10 9.25 -12.35 12.30 -12.35 16.60 0 1.65 -0.20 2.05 -1.35 2.60 -2.05 0.95 -2.10 2.65 -0.15 3.65 2.90 1.50 19.75 3.35 43 4.75 33.90 2.05 73 2.40 105.50 1 24.15 -1.05 22.95 -0.95 23.85 -2.30 0.70 -1.15 0.70 -1.30 -0.05 -2.15 -1.15 -1.30 -4 -1.50 -10.55 -0.75 -3 0.35 -7.75 0.75 -10.50 0.95 -8.15 0.50 -68.20 0.65 -78.50 0.20 -8.30 -0.40 -31.10 -2.55 -50.25 -4.70 -3.45 -0.40 -9 -0.85 -12.35 -1.05 -3.40 -0.20 -6.15 -0.50 -6.15 -0.70 0 -0.75 4.70 -6.75 7.70 -9.95 3.30 -3.45 14.75 -13.50 19.55 -17.10 10.25 -7.75 20.95 -15 32.75 -22.20 2.35 -1.40 6.40 -3.90 9 -5.50 4.35 -2.65 10.40 -6.15 27.50 -16 3.45 -1.95 12.65 -7.30 20.50 -11.80 7.85 -4.55 17.65 -10.20 21.75 -12.55 6.85 -3.85 14.15 -8.15 27.25 -15.80 31.85 -18.70 62.70 -38.50 89.75 -57.60 5.50 -3.90 12.60 -8.90 15.75 -11.05 24.75 -17.15 66 -47.05 82.75 -60.05 6.50 -5.05 11.25 -9.50 12.60 -11.80 1.35 -2.25 1.60 -2.45 2.55 -1.50 1.10 1.10 0.60 2.70 -2.25 7.45 -4.20 6.95 -5 8.90 -24.80 59.45 -11.65 29.65 -18.60 44.85 -44.75 97.25 -24.10 48.30 -40 79.55 -67 131.75 -2.05 4 -4 7.50 -4.30 7.85 -0.30 0.30 -4.45 2.25 -9.20 4.35 -15.75 6.95 -22.70 10.70 -37.10 19.95 -28.55 18.35 -52.10 37.65 -67.55 55.35 -11 12.60 -23.65 32.50 -28.65 45.15 -2.65 6.75 -3 9.60 -3 27.85 -0.05 17.50 0.40 22.75 2.10 25.70 0.85 1.50 2.60 2.35 4.10 2.05 0.40 -0.10 1.60 -0.30 2.60 -0.45z m366.70 -104.85 c5.10 -2.10 14 -7.90 21.30 -13.80 7.15 -5.80 7.85 -6.35 8.10 -6.10 0.10 0.10 -0.25 2.25 -0.85 4.80 -0.90 3.95 -0.95 4.85 -0.40 6.65 1.60 5.30 8.65 4.10 16.75 -2.80 7.30 -6.20 13.25 -13.85 17.15 -22.05 1.20 -2.55 2.30 -4.65 2.35 -4.65 0.10 0 2.50 1.10 5.35 2.45 2.85 1.40 7.25 3.10 9.70 3.90 4.25 1.30 5.05 1.35 14 1.40 10.85 0 14.25 -0.60 21.05 -3.75 4.30 -2 5.15 -2.95 3.75 -4.20 -0.80 -0.75 -1.20 -0.70 -4.70 0.95 -6.60 3.05 -9 3.45 -19.35 3.45 -8.55 -0.05 -9.60 -0.15 -13.65 -1.35 -2.40 -0.75 -6.80 -2.60 -9.80 -4.05 l-5.40 -2.75 -0.25 -2.55 c-0.40 -4.10 -3.05 -5.85 -5.40 -3.50 -1.35 1.35 -1.25 3.50 0.25 5.70 0.70 1 1.25 2.05 1.25 2.35 0 1.20 -3.35 7.60 -6.35 12.15 -3.90 5.90 -12.45 14.85 -16.30 17.20 -3.20 1.90 -6.20 2.60 -6.90 1.55 -0.25 -0.40 -0.45 -1.30 -0.45 -2 0 -2.30 2 -9.10 3.80 -13 1 -2.10 1.70 -4.25 1.60 -4.75 -0.35 -2 -1.95 -1.25 -6.80 3.20 -7.60 7 -14.85 12.85 -21.10 17 -6.15 4.10 -12.80 7.25 -14.65 7 -3.90 -0.55 1.45 -10.95 12.30 -23.90 4.65 -5.55 10.75 -11.55 16.80 -16.40 1.75 -1.40 1.95 -1.80 1.55 -2.65 -0.30 -0.50 -0.95 -0.95 -1.45 -0.95 -1.15 0 -4.10 2 -7.05 4.70 -9.15 8.50 -32.90 20 -48.65 23.50 -6.75 1.55 -10.10 1.40 -12.30 -0.50 -1.15 -0.95 -1.30 -1.50 -1.25 -4.05 0 -4.05 1.40 -7.20 6.70 -15.35 4.70 -7.25 5.30 -9.05 3.40 -9.75 -1.40 -0.55 -2.80 0.15 -8.10 3.85 l-3.95 2.75 -1 -1.35 c-1.45 -2 -3.60 -2.90 -6.95 -2.85 -4.05 0 -7.55 1.10 -14.40 4.55 -6.60 3.30 -14.60 9 -18.20 13.05 -4.65 5.10 -5.85 9.95 -3.20 12.45 1.60 1.50 6.05 1.35 10.05 -0.30 7.25 -3.05 18.25 -10.15 36.55 -23.55 1.60 -1.20 3.05 -2.05 3.15 -1.95 0.15 0.10 -0.95 2.20 -2.35 4.65 -3.65 6.15 -5 9.90 -5 14.05 0 5.25 1.70 7.40 6.90 8.60 6.20 1.45 16.75 -1.55 35.55 -9.95 3.15 -1.45 7 -3.30 8.50 -4.15 l2.80 -1.55 -1.30 1.45 c-6.45 7.05 -13.95 19.95 -13.95 23.90 0 5.05 3.80 6.15 10.80 3.25z"/>
  <path d="M242.75 539.35 c-0.80 -0.70 -1.55 -2.30 -2.10 -4.35 -1.75 -6.75 -0.65 -34.50 1.65 -41.75 1.20 -3.65 6.20 -14.05 9.25 -19.10 9.20 -15.40 22.10 -31.75 31.80 -40.40 19.90 -17.75 31 -26.35 49.30 -38.20 18.20 -11.75 30.30 -18.70 42.75 -24.35 l3.70 -1.70 -3.25 6.15 c-42.80 81.10 -62.50 115.70 -72.65 127.85 -5.30 6.30 -14 15 -17.70 17.75 -4.50 3.30 -14.60 8.20 -26.90 13.05 -1.85 0.75 -5.15 2.25 -7.35 3.35 -5.50 2.75 -7 3.05 -8.50 1.70z"/>
  <path d="M396.85 422.15 c1.45 -4.05 10.90 -16 22.50 -28.40 8.80 -9.45 20.65 -20.60 20.65 -19.45 0 0.50 -7.45 11 -11.20 15.85 -10.60 13.65 -22.85 26.95 -29 31.40 -2.25 1.65 -3.40 1.90 -2.95 0.60z"/>
  <path d="M522.90 422.10 c-0.60 -0.10 -0.90 -0.65 -0.90 -1.55 0 -4.35 12.30 -15 22.85 -19.85 7.50 -3.40 12.60 -4.10 14.60 -2 0.65 0.70 1.10 1.45 1 1.70 -0.40 1 -14.95 11.30 -22 15.50 -7.45 4.45 -13.15 6.75 -15.55 6.20z"/>
 </g>
</svg>